<?xml version="1.0" encoding="UTF-8" standalone="no"?>
<svg
   xmlns:dc="http://purl.org/dc/elements/1.1/"
   xmlns:cc="http://creativecommons.org/ns#"
   xmlns:rdf="http://www.w3.org/1999/02/22-rdf-syntax-ns#"
   xmlns:svg="http://www.w3.org/2000/svg"
   xmlns="http://www.w3.org/2000/svg"
   xmlns:sodipodi="http://sodipodi.sourceforge.net/DTD/sodipodi-0.dtd"
   xmlns:inkscape="http://www.inkscape.org/namespaces/inkscape"
   version="1.1"
   id="svg2"
   xml:space="preserve"
   width="151.02"
   height="151.33333"
   viewBox="0 0 151.02 151.33333"
   sodipodi:docname="supremum.svg"
   inkscape:export-filename="/home/wessel/Downloads/Supremum logo.ai.png"
   inkscape:export-xdpi="109.38"
   inkscape:export-ydpi="109.38"
   inkscape:version="1.0.2-2 (e86c870879, 2021-01-15)"><metadata
     id="metadata8"><rdf:RDF><cc:Work
         rdf:about=""><dc:format>image/svg+xml</dc:format><dc:type
           rdf:resource="http://purl.org/dc/dcmitype/StillImage" /><dc:title /></cc:Work></rdf:RDF></metadata><defs
     id="defs6" /><sodipodi:namedview
     pagecolor="#ffffff"
     bordercolor="#666666"
     borderopacity="1"
     objecttolerance="10"
     gridtolerance="10"
     guidetolerance="10"
     inkscape:pageopacity="0"
     inkscape:pageshadow="2"
     inkscape:window-width="2498"
     inkscape:window-height="1057"
     id="namedview4"
     showgrid="false"
     inkscape:zoom="6.2378856"
     inkscape:cx="50.41973"
     inkscape:cy="69.259561"
     inkscape:window-x="1974"
     inkscape:window-y="-8"
     inkscape:window-maximized="1"
     inkscape:current-layer="g10"
     inkscape:document-rotation="0" /><g
     id="g10"
     inkscape:groupmode="layer"
     inkscape:label="Supremum logo"
     transform="matrix(1.3333333,0,0,-1.3333333,0,151.33333)"><g
       id="g12"
       transform="translate(68.7778,72.9238)"><path
         d="m 0,0 36.549,-24.282 0.086,0.418 0.337,2.523 0.172,2.437 0.078,2.519 -0.078,2.437 -0.172,2.523 -0.25,2.351 -0.423,2.436 -0.501,2.356 -1.431,4.537 -1.761,4.455 -2.19,4.201 -1.26,1.932 -1.345,2.015 -1.424,1.85 -1.595,1.846 -1.605,1.682 -1.674,1.682 -1.768,1.596 -1.846,1.513 -1.932,1.342 -2.019,1.346 -2.104,1.264 -2.096,1.09 -2.191,1.01 -2.261,0.923 -2.355,0.841 -2.441,0.669 -2.432,0.591 -2.441,0.418 -4.367,0.504 -4.369,0.169 -4.203,-0.251 -4.118,-0.59 -4.116,-0.923 -3.867,-1.26 -3.864,-1.596 -3.615,-1.85 -3.444,-2.268 -3.279,-2.437 -3.024,-2.774 -2.858,-3.023 -2.605,-3.364 -2.269,-3.528 -2.1,-3.783 -1.682,-4.032 50.086,-33.863 h -16.22 l -36.469,24.284 -0.084,-0.419 -0.336,-2.524 -0.253,-2.436 -0.084,-2.519 0.084,-2.437 0.169,-2.437 0.336,-2.437 0.337,-2.437 0.586,-2.354 1.346,-4.538 1.763,-4.456 2.269,-4.115 1.262,-2.017 1.343,-2.019 1.428,-1.846 1.514,-1.85 1.596,-1.679 1.682,-1.682 1.764,-1.595 1.932,-1.514 1.85,-1.346 2.017,-1.342 2.1,-1.263 2.185,-1.091 2.184,-1.009 2.269,-0.924 2.353,-0.84 2.353,-0.673 2.437,-0.587 2.521,-0.422 4.369,-0.505 4.287,-0.164 4.2,0.25 4.2,0.587 4.037,0.927 3.95,1.259 3.779,1.596 3.614,1.851 3.442,2.268 3.278,2.437 3.114,2.773 2.769,3.11 2.605,3.274 2.355,3.532 2.018,3.782 1.76,4.034 L -16.135,0 Z"
         style="fill:#d1131c;fill-opacity:1;fill-rule:evenodd;stroke:none"
         id="path14"
         inkscape:connector-curvature="0" /></g><path
       style="fill:#d40026;stroke-width:0.64124292;fill-opacity:1"
       d="M 66.981477,140.61222 C 58.167259,139.52142 47.031866,135.36253 39.640672,130.40086 29.30804,123.46461 22.046286,115.08376 16.685664,103.9083 11.784641,93.690971 10.617426,88.442173 10.581889,76.460517 10.565505,70.936781 10.740815,66.227305 10.971466,65.995012 11.202117,65.76272 22.236649,72.807033 35.49265,81.649045 l 24.101818,16.076376 h 10.640303 c 6.392346,0 10.554968,-0.241543 10.426553,-0.605019 C 80.543765,96.787642 66.019613,86.794583 48.385433,74.913602 30.751252,63.032623 15.910557,52.926549 15.406109,52.455661 14.617053,51.7191 14.864879,50.840808 17.180216,46.168264 25.115885,30.153416 39.185467,18.151363 55.92947,13.113222 c 23.929018,-7.200056 49.73169,-0.543498 66.68756,17.204018 5.57625,5.836594 7.7548,8.899037 11.23133,15.788127 5.76243,11.418842 8.36456,25.60687 6.79566,37.053208 l -0.40101,2.92571 -23.98246,-15.996763 -23.982457,-15.996764 -11.037502,0.175383 -11.037497,0.175384 32.695686,22.05789 c 17.98263,12.131842 32.94073,22.274471 33.24023,22.539176 0.2995,0.264698 -0.36095,2.378539 -1.46765,4.697429 -12.35303,25.88345 -39.039573,40.42178 -67.689883,36.8762 z"
       id="path9"
       inkscape:connector-curvature="0"
       transform="matrix(0.75000002,0,0,-0.75000002,0,113.5)" /></g></svg>
